<svg xmlns="http://www.w3.org/2000/svg" xmlns:svg="http://www.w3.org/2000/svg" id="svg2" width="765" height="722.835" version="1.0" viewBox="0 0 327 473.858"><metadata id="metadata184"/><defs id="defs182"><marker id="Arrow2Lstart" orient="auto" overflow="visible" refX="0" refY="0"><path id="path4328" fill-rule="evenodd" stroke-linejoin="round" stroke-width=".625" d="M 8.7185878,4.0337352 -2.2072895,0.01601326 8.7185884,-4.0017078 c -1.7454984,2.3720609 -1.7354408,5.6174519 -6e-7,8.035443 z" font-size="12" transform="matrix(1.1,0,0,1.1,1.1,0)"/></marker><marker id="Arrow2Lend" orient="auto" overflow="visible" refX="0" refY="0"><path id="path3605" fill-rule="evenodd" stroke-linejoin="round" stroke-width=".625" d="M 8.7185878,4.0337352 -2.2072895,0.01601326 8.7185884,-4.0017078 c -1.7454984,2.3720609 -1.7354408,5.6174519 -6e-7,8.035443 z" font-size="12" transform="matrix(-1.1,0,0,-1.1,-1.1,0)"/></marker><marker id="TriangleOutL" orient="auto" overflow="visible" refX="0" refY="0"><path id="path3727" fill-rule="evenodd" stroke="#000" stroke-width="1pt" marker-start="none" d="m 5.77,0 -8.65,5 0,-10 8.65,5 z" transform="scale(0.8,0.8)"/></marker><marker id="Arrow1Lend" orient="auto" overflow="visible" refX="0" refY="0"><path id="path3587" fill-rule="evenodd" stroke="#000" stroke-width="1pt" marker-start="none" d="M 0,0 5,-5 -12.5,0 5,5 0,0 z" transform="matrix(-0.8,0,0,-0.8,-10,0)"/></marker><title id="title5">G</title><title id="title10">incoming_app</title><title id="title17">command_deploy</title><title id="title33">state_deployed</title></defs><g id="g3665" transform="translate(1.2741127,1.9059326)"><g id="g2936" transform="translate(-6.3558215,12.386246)"><polygon id="polygon3447" fill="#0ff" fill-opacity="1" stroke="#0aa" stroke-opacity="1" stroke-width=".801" points="228 -510 228 -510 144 -510 144 -468 228 -468" transform="matrix(1.2491264,0,0,1.2491264,114.40682,816.04947)"/><text font-style="normal" style="text-align:center;line-height:125%;-inkscape-font-specification:Sans" id="text3449" x="346.678" y="210.189" font-family="Sans" font-size="17.987" font-stretch="normal" font-variant="normal" font-weight="normal" text-anchor="middle" writing-mode="lr-tb"><tspan id="tspan3453" x="346.678" y="210.189">Deploying</tspan></text></g><g id="g2952" transform="translate(-6.3558215,12.386246)"><polygon id="polygon3491" fill="#0ff" stroke="#0ff" stroke-width=".705" points="230 -432 230 -432 138 -432 138 -390 230 -390" transform="matrix(1.6111428,0,0,1.2491264,-118.06476,648.90074)"/><text font-style="normal" style="text-align:center;line-height:125%;-inkscape-font-specification:Sans" id="text3493" x="178.421" y="140.472" font-family="Sans" font-size="17.987" font-stretch="normal" font-variant="normal" font-weight="normal" text-anchor="middle" writing-mode="lr-tb"><tspan id="tspan3505" x="178.421" y="140.472">Undeployed</tspan></text></g><g id="g2944" transform="translate(-6.3558215,12.386246)"><polygon id="polygon3551" fill="#0ff" fill-opacity="1" stroke="#0aa" stroke-opacity="1" stroke-width=".801" points="144 -468 228 -468 228 -510 228 -510 144 -510" transform="matrix(1.4834695,0,0,1.2470109,-274.63019,815.015)"/><text font-style="normal" style="text-align:center;line-height:125%;-inkscape-font-specification:Sans" id="text3553" x="1.33" y="210.189" font-family="Sans" font-size="17.987" font-stretch="normal" font-variant="normal" font-weight="normal" text-anchor="middle" writing-mode="lr-tb"><tspan id="tspan3561" x="1.33" y="210.189">Undeploying</tspan></text></g><g id="g3483" transform="matrix(1.2491264,0,0,1.2491264,-109.24039,19.970246)"><ellipse id="ellipse3485" cx="222" cy="-564" fill="#c1c1c1" fill-opacity="1" stroke="none" d="m 318.7846,-564 c 0,9.94113 -43.33194,18 -96.7846,18 -53.45266,0 -96.7846,-8.05887 -96.7846,-18 0,-9.94113 43.33194,-18 96.7846,-18 53.45266,0 96.7846,8.05887 96.7846,18 z" rx="96.785" ry="18" transform="translate(4,586)"/><text font-style="normal" style="text-align:center;line-height:125%;-inkscape-font-specification:Sans" id="text3487" x="226" y="26.1" font-family="Sans" font-size="14.4" font-stretch="normal" font-variant="normal" font-weight="normal" text-anchor="middle" writing-mode="lr-tb">Incoming WebApp</text></g><path id="path2594" fill="none" stroke="#000" stroke-dasharray="none" stroke-linecap="butt" stroke-linejoin="miter" stroke-miterlimit="4" stroke-opacity="1" stroke-width=".999" marker-end="url(#Arrow2Lend)" d="m 174.04489,69.910232 0,50.845998"/><path id="path3923" fill="none" stroke="#000" stroke-dasharray="none" stroke-linecap="butt" stroke-linejoin="miter" stroke-miterlimit="4" stroke-opacity="1" stroke-width=".999" marker-end="url(#Arrow2Lend)" d="m 246.14225,166.65923 41.78294,36.021"/><path id="path3925" fill="none" stroke="#000" stroke-dasharray="none" stroke-linecap="butt" stroke-linejoin="miter" stroke-miterlimit="4" stroke-opacity="1" stroke-width=".999" marker-end="url(#Arrow2Lend)" d="m 287.92519,225.48323 -57.81112,52.05"/><g id="g2928" transform="translate(-6.3558215,12.386246)"><polygon id="polygon3471" fill="#0ff" stroke="#0ff" stroke-width=".801" points="230 -432 230 -432 138 -432 138 -390 230 -390" transform="matrix(1.2491264,0,0,1.2491264,-50.829179,787.70992)"/><text font-style="normal" style="text-align:center;line-height:125%;-inkscape-font-specification:Sans" id="text3473" x="178.944" y="279.281" font-family="Sans" font-size="17.987" font-stretch="normal" font-variant="normal" font-weight="normal" text-anchor="middle" writing-mode="lr-tb"><tspan id="tspan3477" x="178.944" y="279.281">Deployed</tspan></text></g><path id="path3927" fill="none" stroke="#000" stroke-dasharray="none" stroke-linecap="butt" stroke-linejoin="miter" stroke-miterlimit="4" stroke-opacity="1" stroke-width=".999" marker-end="url(#Arrow2Lend)" d="m 230.11407,296.60023 57.18658,46.465"/><path id="path3941" fill="none" stroke="#000" stroke-dasharray="none" stroke-linecap="butt" stroke-linejoin="miter" stroke-miterlimit="4" stroke-opacity="1" stroke-width=".999" marker-end="url(#Arrow2Lend)" d="m 56.368406,199.14923 41.548722,-33.236"/><path id="path3943" fill="none" stroke="#000" stroke-dasharray="none" stroke-linecap="butt" stroke-linejoin="miter" stroke-miterlimit="4" stroke-opacity="1" stroke-width=".999" marker-end="url(#Arrow2Lend)" d="m 115.19445,276.22323 -58.826044,-50.892"/><text font-style="italic" style="text-align:center;line-height:100%;-inkscape-font-specification:Sans Bold Italic" id="text2456" x="-17.191" y="36.155" font-family="Sans" font-size="20.464" font-stretch="normal" font-variant="normal" font-weight="bold" text-anchor="middle" writing-mode="lr-tb"><tspan id="tspan2460" x="-17.191" y="36.155" font-family="Sans" font-size="20.464" font-stretch="normal" font-style="italic" font-variant="normal" font-weight="bold" text-anchor="middle" writing-mode="lr-tb" style="text-align:center;line-height:100%;-inkscape-font-specification:Sans Bold Italic">App</tspan> <tspan id="tspan2464" x="-17.191" y="56.619" font-family="Sans" font-size="20.464" font-stretch="normal" font-style="italic" font-variant="normal" font-weight="bold" text-anchor="middle" writing-mode="lr-tb" style="text-align:center;line-height:100%;-inkscape-font-specification:Sans Bold Italic">LifeCycle</tspan></text><g id="g2904" transform="translate(-6.3558215,-123.67976)"><polygon id="polygon2474" fill="#0ff" fill-opacity="1" stroke="#0aa" stroke-opacity="1" stroke-width=".801" points="144 -510 144 -468 228 -468 228 -510 228 -510" transform="matrix(1.2491264,0,0,1.2491264,114.40682,1087.7193)"/><text font-style="normal" style="text-align:center;line-height:125%;-inkscape-font-specification:Sans" id="text2476" x="346.968" y="481.859" font-family="Sans" font-size="17.987" font-stretch="normal" font-variant="normal" font-weight="normal" text-anchor="middle" writing-mode="lr-tb"><tspan id="tspan2480" x="346.968" y="481.859">Starting</tspan></text></g><g id="g2920" transform="translate(-6.3558215,12.155246)"><polygon id="polygon2484" fill="#0ff" fill-opacity="1" stroke="#0aa" stroke-opacity="1" stroke-width=".801" points="144 -510 144 -468 228 -468 228 -510 228 -510" transform="matrix(1.2491264,0,0,1.2491264,-222.07659,951.8844)"/><text font-style="normal" style="text-align:center;line-height:125%;-inkscape-font-specification:Sans" id="text2486" x="10.485" y="346.024" font-family="Sans" font-size="17.987" font-stretch="normal" font-variant="normal" font-weight="normal" text-anchor="middle" writing-mode="lr-tb"><tspan id="tspan2490" x="10.485" y="346.024">Stopping</tspan></text></g><path id="path2494" fill="none" stroke="#000" stroke-dasharray="none" stroke-linecap="butt" stroke-linejoin="miter" stroke-miterlimit="4" stroke-opacity="1" stroke-width=".999" marker-end="url(#Arrow2Lend)" d="m 56.368406,338.75923 58.826044,-39.946"/><g id="g2912" transform="translate(-6.3558215,-123.91076)"><polygon id="polygon2553" fill="#0ff" stroke="#0ff" stroke-width=".801" points="230 -432 138 -432 138 -390 230 -390 230 -432" transform="matrix(1.2491264,0,0,1.2491264,-51.844096,1059.3798)"/><text font-style="normal" style="text-align:center;line-height:125%;-inkscape-font-specification:Sans" id="text2555" x="178.219" y="552.695" font-family="Sans" font-size="17.987" font-stretch="normal" font-variant="normal" font-weight="normal" text-anchor="middle" writing-mode="lr-tb"><tspan id="tspan2559" x="178.219" y="552.695">Started</tspan></text></g><path id="path2561" fill="none" stroke="#000" stroke-dasharray="none" stroke-linecap="butt" stroke-linejoin="miter" stroke-miterlimit="4" stroke-opacity="1" stroke-width=".999" marker-end="url(#Arrow2Lend)" d="m 114.17953,414.91423 -57.104922,-50.065"/><path id="path2563" fill="none" stroke="#000" stroke-dasharray="none" stroke-linecap="butt" stroke-linejoin="miter" stroke-miterlimit="4" stroke-opacity="1" stroke-width=".999" marker-end="url(#Arrow2Lend)" d="m 287.92519,367.75723 -58.82603,53.672"/></g></svg>