<svg xmlns="http://www.w3.org/2000/svg" xmlns:svg="http://www.w3.org/2000/svg" id="svg2" width="400" height="400" version="1.0"><defs id="defs4"><filter id="filter3853" width="1.317" height="1.412" x="-.158" y="-.206"><feGaussianBlur id="feGaussianBlur3855" stdDeviation="26.293"/></filter></defs><metadata id="metadata7"/><g id="layer2" display="inline" transform="translate(-1.845606,-221.31978)"><g id="g3857" transform="matrix(0.88669095,0,0,0.88669095,25.158515,48.38446)"><path id="path3004" fill="#fff" fill-opacity="1" fill-rule="evenodd" stroke="none" stroke-width="25" d="m 84.37204,268.03851 a 12.50125,12.50125 0 0 0 -12.1875,9.6875 l -10.3125,44.75 a 12.50125,12.50125 0 0 0 0.71875,7.75 12.50125,12.50125 0 0 0 -4.0625,6.6875 L 18.68454,509.44476 c -0.93999,0.0793 -1.75306,0.16127 -3.21875,0.21875 a 12.50125,12.50125 0 0 0 -12,12.1875 l -0.96875,39.9375 a 12.50125,12.50125 0 0 0 12.53125,12.8125 l 67.40625,-0.25 a 12.50125,12.50125 0 0 0 0.625,0 c 8.74629,-0.48292 17.66461,-3.77402 24.21875,-10.15625 6.55414,-6.38223 10.64721,-14.90394 13.6875,-25.25 a 12.50125,12.50125 0 0 0 0.1875,-0.6875 l 5.625,-24.3125 3.75,0 -4.0625,8.6875 a 12.50125,12.50125 0 0 0 11.34375,17.78125 l 42.15625,0 a 12.50125,12.50125 0 0 0 11.34375,-7.21875 l 115.34375,-247.375 a 12.50125,12.50125 0 0 0 -11.3125,-17.78125 l -42.1875,0 a 12.50125,12.50125 0 0 0 -11.3125,7.21875 l -24.59375,52.75 a 12.50125,12.50125 0 0 0 -4.375,-0.78125 l -43.03125,0 10.15625,-43.875 a 12.50125,12.50125 0 0 0 -12.1875,-15.3125 l -83.4375,0 z m 262.15625,0 a 12.50125,12.50125 0 0 0 -11.3125,7.21875 l -115.375,247.375 a 12.50125,12.50125 0 0 0 11.34375,17.78125 l 42.15625,0 a 12.50125,12.50125 0 0 0 11.34375,-7.21875 l 115.34375,-247.375 a 12.50125,12.50125 0 0 0 -11.3125,-17.78125 l -42.1875,0 z m -196.75,146.28125 27.21875,0 -5.84375,12.53125 -24.28125,0 2.90625,-12.53125 z" baseline-shift="baseline" color="#000" direction="ltr" display="inline" enable-background="accumulate" filter="url(#filter3853)" font-family="Sans" font-size="medium" font-stretch="normal" font-style="normal" font-variant="normal" font-weight="normal" letter-spacing="normal" overflow="visible" text-anchor="start" text-decoration="none" visibility="visible" word-spacing="normal" writing-mode="lr-tb" style="text-indent:0;text-align:start;line-height:normal;text-transform:none;block-progression:tb;marker:none;-inkscape-font-specification:Sans"/><g id="g3058"><g id="g3032" transform="translate(-33.169935,0)"><path id="path2996" fill="#fc390e" fill-opacity="1" fill-rule="evenodd" stroke="#000" stroke-dasharray="none" stroke-linecap="butt" stroke-linejoin="round" stroke-miterlimit="4" stroke-opacity="1" stroke-width="28.195" d="M 106.32205,339.73892 65.825288,515.14967 c -2.406515,7.05911 -6.072322,6.68223 -14.254473,7.0031 l -0.962606,39.94815 67.382421,-0.24066 c 13.0754,-0.72195 21.22428,-8.13437 26.59883,-26.42388 l 45.18031,-195.69746 z"/><path id="path2994" fill="#fc390e" fill-opacity="1" fill-rule="evenodd" stroke="#000" stroke-dasharray="none" stroke-linecap="butt" stroke-linejoin="round" stroke-miterlimit="4" stroke-opacity="1" stroke-width="28.195" d="m 119.98951,280.53864 -10.33393,44.76119 83.44772,0 10.33393,-44.76119 z"/><path id="path3020" fill="#fc390e" fill-opacity="1" fill-rule="evenodd" stroke="none" d="M 106.32205,339.73892 65.825288,515.14967 c -2.406515,7.05911 -6.072322,6.68223 -14.254473,7.0031 l -0.962606,39.94815 67.382421,-0.24066 c 13.0754,-0.72195 21.22428,-8.13437 26.59883,-26.42388 l 45.18031,-195.69746 z"/><path id="path3018" fill="#fc390e" fill-opacity="1" fill-rule="evenodd" stroke="none" d="m 119.98951,280.53864 -10.33393,44.76119 83.44772,0 10.33393,-44.76119 z"/></g><g id="g3046" transform="translate(-287.0915,0)"><path id="path2988" fill="#fc390e" fill-opacity="1" fill-rule="evenodd" stroke="#000" stroke-dasharray="none" stroke-linecap="butt" stroke-linejoin="round" stroke-miterlimit="4" stroke-opacity="1" stroke-width="28.195" d="m 542.7018,280.53864 -115.3597,247.38976 42.1718,0 115.3597,-247.38976 z"/><path id="path3193" fill="#fc390e" fill-opacity="1" fill-rule="evenodd" stroke="#000" stroke-dasharray="none" stroke-linecap="butt" stroke-linejoin="round" stroke-miterlimit="4" stroke-opacity="1" stroke-width="28.195" d="m 636.0746,280.53864 -115.3597,247.38976 42.1718,0 115.3597,-247.38976 z"/><path id="path3012" fill="#fc592e" fill-opacity="1" fill-rule="evenodd" stroke="none" d="m 542.7018,280.53864 -115.3597,247.38976 42.1718,0 115.3597,-247.38976 z"/><path id="path3316" fill="#fc390e" fill-opacity="1" fill-rule="evenodd" stroke="none" d="m 636.0746,280.53864 -115.3597,247.38976 42.1718,0 115.3597,-247.38976 z"/></g><g id="g3052" transform="translate(-239.05228,0)"><path id="path2992" fill="#fc390e" fill-opacity="1" fill-rule="evenodd" stroke="#000" stroke-dasharray="none" stroke-linecap="butt" stroke-linejoin="round" stroke-miterlimit="4" stroke-opacity="1" stroke-width="28.195" d="m 370.6225,339.73892 -14.3342,62.08809 83.7467,0 14.3342,-62.08809 z"/><path id="path2990" fill="#fc390e" fill-opacity="1" fill-rule="evenodd" stroke="#000" stroke-dasharray="none" stroke-linecap="butt" stroke-linejoin="round" stroke-miterlimit="4" stroke-opacity="1" stroke-width="28.195" d="m 347.6212,439.36864 -14.3342,62.08809 83.7466,0 14.3342,-62.08809 z"/><path id="path3016" fill="#fc390e" fill-opacity="1" fill-rule="evenodd" stroke="none" d="m 370.6225,339.73892 -14.3342,62.08809 83.7467,0 14.3342,-62.08809 z"/><path id="path3014" fill="#fc390e" fill-opacity="1" fill-rule="evenodd" stroke="none" d="m 347.6212,439.36864 -14.3342,62.08809 83.7466,0 14.3342,-62.08809 z"/></g></g></g></g></svg>